<svg width="431" height="127" viewBox="0 0 431 127" fill="none" xmlns="http://www.w3.org/2000/svg">
<path opacity="0.1" d="M403 20H28C12.536 20 0 32.5361 0 48V85.2821C0 100.746 12.536 113.282 28 113.282H184.167C189.065 113.282 193.878 114.567 198.124 117.009L215.5 127L232.876 117.009C237.122 114.567 241.935 113.282 246.833 113.282H403C418.464 113.282 431 100.746 431 85.282V48C431 32.536 418.464 20 403 20Z" fill="#1A3B9F"/>
<path d="M393 0H38C22.536 0 10 12.536 10 28V74C10 89.464 22.536 102 38 102H184.35C189.829 102 195.188 103.608 199.763 106.624L215.5 117L231.237 106.624C235.812 103.608 241.171 102 246.65 102H393C408.464 102 421 89.464 421 74V28C421 12.536 408.464 0 393 0Z" fill="#1A3B9F"/>
<path d="M73.088 41.64H60.224V69H53.12V35.4H80.192V69H73.088V41.64ZM86.4481 35.736C87.8881 35.48 89.4881 35.288 91.2481 35.16C93.0081 35 94.7681 34.92 96.5281 34.92C98.3201 34.92 100.128 35.064 101.952 35.352C103.776 35.608 105.408 36.152 106.848 36.984C108.32 37.784 109.52 38.92 110.448 40.392C111.376 41.832 111.84 43.752 111.84 46.152C111.84 48.264 111.44 50.072 110.64 51.576C109.84 53.048 108.768 54.248 107.424 55.176C106.112 56.104 104.608 56.792 102.912 57.24C101.216 57.656 99.4721 57.864 97.6801 57.864C97.5201 57.864 97.2481 57.864 96.8641 57.864C96.4801 57.864 96.0641 57.864 95.6161 57.864C95.2001 57.832 94.8001 57.8 94.4161 57.768C94.0321 57.736 93.7441 57.704 93.5521 57.672V69H86.4481V35.736ZM97.0081 41.16C96.3361 41.16 95.6801 41.176 95.0401 41.208C94.4321 41.24 93.9361 41.304 93.5521 41.4V51.384C93.6801 51.416 93.8881 51.448 94.1761 51.48C94.4641 51.512 94.7681 51.544 95.0881 51.576C95.4081 51.576 95.6961 51.592 95.9521 51.624C96.2401 51.624 96.4641 51.624 96.6241 51.624C97.5521 51.624 98.4801 51.56 99.4081 51.432C100.336 51.304 101.152 51.032 101.856 50.616C102.592 50.2 103.184 49.64 103.632 48.936C104.08 48.2 104.304 47.224 104.304 46.008C104.304 44.984 104.096 44.168 103.68 43.56C103.264 42.92 102.704 42.424 102 42.072C101.328 41.72 100.544 41.48 99.6481 41.352C98.7841 41.224 97.9041 41.16 97.0081 41.16ZM137.574 50.472L137.958 46.2H137.718L135.27 50.52L121.494 69H116.214V35.4H123.318V53.496L122.838 57.96H123.126L125.718 53.496L139.35 35.4H144.678V69H137.574V50.472ZM150.901 35.4H172.549V41.64H158.005V48.936H171.205V55.176H158.005V62.76H172.789V69H150.901V35.4ZM206.409 52.152L207.177 45.192H206.889L204.585 50.472L196.809 63H194.601L186.345 50.424L184.089 45.24H183.801L184.809 52.104V69H178.089V35.4H184.521L194.217 50.904L196.041 54.6H196.281L197.865 50.808L207.129 35.4H213.513V69H206.409V52.152ZM257.602 43.32C257.602 44.152 257.474 44.984 257.218 45.816C256.994 46.616 256.626 47.368 256.114 48.072C255.602 48.776 254.93 49.384 254.098 49.896C253.266 50.408 252.258 50.776 251.074 51V51.288C252.13 51.384 253.122 51.624 254.05 52.008C254.978 52.392 255.778 52.936 256.45 53.64C257.154 54.312 257.698 55.144 258.082 56.136C258.498 57.096 258.706 58.232 258.706 59.544C258.706 61.304 258.29 62.808 257.458 64.056C256.658 65.304 255.602 66.328 254.29 67.128C252.978 67.928 251.474 68.52 249.778 68.904C248.082 69.288 246.354 69.48 244.594 69.48C244.018 69.48 243.25 69.48 242.29 69.48C241.362 69.48 240.354 69.448 239.266 69.384C238.21 69.352 237.122 69.288 236.002 69.192C234.914 69.096 233.922 68.952 233.026 68.76V35.64C233.698 35.544 234.45 35.448 235.282 35.352C236.146 35.256 237.058 35.176 238.018 35.112C239.01 35.048 240.018 35 241.042 34.968C242.066 34.936 243.09 34.92 244.114 34.92C245.778 34.92 247.41 35.048 249.01 35.304C250.61 35.528 252.05 35.96 253.33 36.6C254.61 37.208 255.634 38.056 256.402 39.144C257.202 40.232 257.602 41.624 257.602 43.32ZM244.498 63.72C245.394 63.72 246.242 63.64 247.042 63.48C247.874 63.32 248.594 63.064 249.202 62.712C249.842 62.328 250.338 61.864 250.69 61.32C251.074 60.744 251.266 60.04 251.266 59.208C251.266 58.184 251.042 57.368 250.594 56.76C250.146 56.152 249.554 55.704 248.818 55.416C248.114 55.096 247.314 54.904 246.418 54.84C245.554 54.744 244.674 54.696 243.778 54.696H239.842V63.432C240.034 63.496 240.306 63.544 240.658 63.576C241.042 63.608 241.458 63.64 241.906 63.672C242.354 63.672 242.802 63.688 243.25 63.72C243.73 63.72 244.146 63.72 244.498 63.72ZM242.242 49.416C242.722 49.416 243.282 49.416 243.922 49.416C244.594 49.384 245.154 49.336 245.602 49.272C246.946 48.856 248.082 48.296 249.01 47.592C249.938 46.856 250.402 45.864 250.402 44.616C250.402 43.784 250.226 43.112 249.874 42.6C249.522 42.088 249.042 41.688 248.434 41.4C247.858 41.112 247.202 40.92 246.466 40.824C245.73 40.728 244.978 40.68 244.21 40.68C243.282 40.68 242.434 40.696 241.666 40.728C240.898 40.76 240.29 40.808 239.842 40.872V49.416H242.242ZM263.776 35.4H285.424V41.64H270.88V48.936H284.08V55.176H270.88V62.76H285.664V69H263.776V35.4ZM322.98 74.952H317.94L317.172 69H293.652L292.884 74.952H287.844V62.76H291.732C291.988 62.408 292.388 61.64 292.932 60.456C293.476 59.272 294.02 57.576 294.564 55.368C295.108 53.16 295.572 50.424 295.956 47.16C296.372 43.864 296.548 39.944 296.484 35.4H318.372V62.76H322.98V74.952ZM311.268 62.76V41.64H303.108C302.916 47.144 302.42 51.656 301.62 55.176C300.852 58.696 300.068 61.224 299.268 62.76H311.268ZM327.011 35.4H348.659V41.64H334.115V48.936H347.315V55.176H334.115V62.76H348.899V69H327.011V35.4ZM380.07 41.64H369.414V69H362.31V41.64H351.654V35.4H380.07V41.64Z" fill="white"/>
</svg>
