<svg width="54" height="78" viewBox="0 0 54 78" fill="none" xmlns="http://www.w3.org/2000/svg">
<path d="M13.7039 4.25795C22.0792 -0.608456 32.3738 -0.523399 40.6705 4.48075C48.8856 9.58683 53.8785 18.6997 53.8324 28.5025C53.6408 38.2411 48.287 47.3953 41.5947 54.472C37.732 58.5749 33.411 62.2028 28.7199 65.2818C28.2368 65.5612 27.7076 65.7482 27.1584 65.8337C26.6298 65.8112 26.1151 65.655 25.6606 65.3792C18.4986 60.7528 12.2155 54.8475 7.11328 47.9472C2.84393 42.1872 0.418381 35.2284 0.166016 28.0156L0.185129 26.9663C0.533717 17.5515 5.62773 8.95055 13.7039 4.25795ZM30.4772 19.967C27.0725 18.5197 23.147 19.306 20.5337 21.9587C17.9204 24.6113 17.1348 28.6071 18.5436 32.0803C19.9525 35.5535 23.2779 37.8191 26.9672 37.8191C29.3841 37.8364 31.7074 36.8683 33.4195 35.1305C35.1315 33.3926 36.09 31.0294 36.0815 28.5674C36.0944 24.8095 33.8819 21.4142 30.4772 19.967Z" fill="#1A3B9F"/>
<path opacity="0.4" d="M26.9992 77.3337C37.5846 77.3337 46.1659 75.6174 46.1659 73.5003C46.1659 71.3832 37.5846 69.667 26.9992 69.667C16.4137 69.667 7.83252 71.3832 7.83252 73.5003C7.83252 75.6174 16.4137 77.3337 26.9992 77.3337Z" fill="#1A3B9F"/>
</svg>
