<svg width="209" height="48" viewBox="0 0 209 48" fill="none" xmlns="http://www.w3.org/2000/svg">
<g clip-path="url(#clip0_101_60)">
<path d="M98.8054 19.2071L99.1578 19.3512L98.5613 21.8051C97.7817 22.2294 96.93 22.5417 96.0061 22.7436C95.0804 22.9463 94.139 23.0473 93.1781 23.0473C92.3258 23.0473 91.5915 22.9988 90.9773 22.9025C90.9231 22.8829 90.4695 22.7875 89.6182 22.6137C89.2013 22.5174 88.7072 22.3295 88.1359 22.0509C87.5653 21.7722 87.085 21.4975 86.6964 21.2275C86.3055 20.959 85.9315 20.631 85.569 20.2467C85.2783 19.9398 84.9792 19.5735 84.6703 19.1493C84.0913 18.3211 83.6606 17.4366 83.3792 16.4926C83.0992 15.5494 82.9585 14.5295 82.9585 13.4321C82.9585 11.642 83.1902 10.1031 83.6507 8.81313C84.1134 7.52395 84.9249 6.33027 86.0845 5.23287C87.0635 4.3288 88.2276 3.65956 89.5776 3.2267C90.9269 2.79305 92.3266 2.57623 93.7765 2.57623C94.7382 2.57623 95.7074 2.69835 96.6867 2.93787C97.6642 3.17895 98.5437 3.52023 99.3224 3.96247C99.2308 4.34837 99.1272 4.81409 99.0089 5.36358C98.8905 5.9115 98.7878 6.42654 98.6981 6.90794H98.3171C97.8085 6.1385 97.1565 5.52248 96.3594 5.06067C95.5613 4.59884 94.7096 4.36793 93.8033 4.36793C91.7009 4.36793 90.0794 5.28296 88.9382 7.11145C87.9401 8.70981 87.4421 10.6823 87.4421 13.0306C87.4421 14.1264 87.5699 15.1815 87.8238 16.1921C88.077 17.2026 88.4839 18.0972 89.0476 18.876C89.6098 19.6557 90.3249 20.2623 91.1938 20.696C92.065 21.1281 92.9793 21.3456 93.9392 21.3456C94.7734 21.3456 95.6334 21.1468 96.5221 20.7523C97.409 20.3586 98.171 19.8419 98.8054 19.2071Z" fill="#1A3B9F"/>
<path d="M104.079 10.4881C103.221 10.4881 102.618 10.5037 102.271 10.5351C101.925 10.5664 101.268 10.654 100.3 10.7981C100.391 10.5093 100.437 10.1726 100.437 9.78751C100.437 9.49868 100.391 9.18092 100.3 8.83417C100.481 8.83417 101.582 8.88505 103.609 8.98445C104.421 9.02438 105.225 9.04395 106.024 9.04395C106.727 9.04395 107.705 9.00951 108.951 8.93906C110.199 8.87018 111.066 8.83417 111.554 8.83417C111.465 9.17701 111.417 9.49093 111.417 9.77579C111.417 10.1179 111.465 10.4513 111.554 10.777C110.956 10.7003 110.349 10.6321 109.732 10.5743C109.116 10.5163 108.483 10.4889 107.829 10.4889V12.5444V18.1621C107.829 19.1663 107.838 19.9671 107.846 20.5643C107.858 21.164 107.897 21.8684 107.965 22.6793C107.663 22.6793 107.25 22.6543 106.727 22.6034C106.202 22.5533 105.886 22.5283 105.781 22.5283C105.513 22.5283 105.153 22.5533 104.701 22.6034C104.25 22.6543 103.977 22.6793 103.889 22.6793L103.969 20.7679L104.079 17.9876V13.587V10.4881Z" fill="#1A3B9F"/>
<path d="M118.16 23.0472C116.149 23.0472 114.545 22.4233 113.35 21.1749C112.153 19.9257 111.554 18.2357 111.554 16.1027C111.554 15.0084 111.696 14.0097 111.978 13.1063C112.257 12.2038 112.723 11.3781 113.377 10.6281C113.921 9.99417 114.645 9.4815 115.552 9.08618C116.456 8.69325 117.337 8.49521 118.189 8.49521C119.111 8.49521 120.025 8.65489 120.932 8.97112C121.84 9.28894 122.574 9.77033 123.134 10.4121C123.697 11.0548 124.127 11.825 124.426 12.7181C124.726 13.6113 124.876 14.5278 124.876 15.4695C124.876 17.7175 124.297 19.5233 123.135 20.886C121.902 22.327 120.244 23.0472 118.16 23.0472ZM118.35 9.73664C117.517 9.73664 116.866 10.2173 116.394 11.1769C116.029 11.9072 115.805 12.7909 115.714 13.8273C115.714 14.0769 115.694 14.4433 115.659 14.9216C115.624 15.4014 115.606 15.7677 115.606 16.0166C115.606 17.4952 115.731 18.6849 115.985 19.5874C116.403 21.0473 117.128 21.7768 118.16 21.7768C118.849 21.7768 119.393 21.47 119.791 20.8547C120.062 20.4336 120.3 19.78 120.498 18.8963C120.587 18.5128 120.671 17.8936 120.742 17.0388C120.816 16.1841 120.852 15.5071 120.852 15.0076C120.852 14.7775 120.839 14.5185 120.811 14.2296C120.783 13.9431 120.76 13.7216 120.742 13.5681C120.742 12.6453 120.57 11.8297 120.227 11.1198C119.791 10.1977 119.167 9.73664 118.35 9.73664Z" fill="#1A3B9F"/>
<path d="M138.275 22.6796C137.966 22.6796 137.714 22.6694 137.515 22.6498C136.715 22.5684 136.273 22.5284 136.184 22.5284C135.874 22.5284 135.471 22.5536 134.974 22.6036C134.474 22.6545 134.188 22.6796 134.116 22.6796C133.7 21.1774 133.085 19.2699 132.267 16.9585C131.906 15.9573 131.488 14.8099 131.017 13.5199C130.385 14.9648 129.805 16.3996 129.279 17.8257C128.696 19.4053 128.173 21.0224 127.702 22.6796L126.588 22.5856L125.528 22.6796C126.505 20.401 127.484 18.0645 128.461 15.6709C129.567 12.9673 130.465 10.6504 131.154 8.72012C131.353 8.76865 131.526 8.80936 131.67 8.84693C131.816 8.88294 131.95 8.90015 132.077 8.90015C132.186 8.90015 132.34 8.87588 132.539 8.82814C132.738 8.77961 132.894 8.74517 133.001 8.72012C133.781 10.9212 134.631 13.2483 135.557 15.6998C136.372 17.843 137.279 20.1693 138.275 22.6796Z" fill="#1A3B9F"/>
<path d="M139.797 22.7226L139.877 20.8103L139.988 18.0276L140.068 13.6239C140.068 13.1018 140.041 12.3097 139.988 11.2475C139.931 10.1854 139.906 9.38301 139.906 8.84216L140.151 8.87112L142.108 8.95722C142.307 8.95722 142.624 8.93844 143.061 8.8993C143.493 8.86095 143.822 8.84216 144.036 8.84216L143.822 12.5664C143.822 13.2005 143.801 14.1374 143.765 15.3765C143.73 16.6172 143.712 17.2567 143.712 17.2942C144.856 15.9675 145.927 14.6399 146.928 13.3132C147.927 11.9856 148.986 10.4953 150.113 8.84216C150.35 8.84216 150.586 8.84686 150.823 8.85625C151.062 8.86643 151.299 8.87112 151.536 8.87112H151.974C152.101 8.85233 152.201 8.84216 152.276 8.84216L152.084 12.5664C152.084 13.2044 152.067 14.2737 152.032 15.7726C151.994 17.2723 151.975 18.0793 151.975 18.1959C151.975 19.201 151.985 20.0049 152.006 20.6044C152.022 21.204 152.085 21.9093 152.193 22.7226C151.888 22.7226 151.464 22.6896 150.93 22.6255C150.396 22.5605 150.074 22.5276 149.964 22.5276C149.693 22.5276 149.326 22.5605 148.864 22.6255C148.402 22.6896 148.126 22.7226 148.034 22.7226L148.116 20.8056L148.224 18.0183V14.0975C147.051 15.4243 145.935 16.8042 144.876 18.2374C143.818 19.6699 142.791 21.1649 141.797 22.7233C141.563 22.7233 141.227 22.7233 140.785 22.7233C140.342 22.7226 140.014 22.7226 139.797 22.7226Z" fill="#1A3B9F"/>
<path d="M154.585 13.5333C154.585 12.9955 154.567 12.104 154.53 10.8578C154.493 9.61093 154.477 8.93857 154.477 8.84308L154.721 8.87204L156.679 8.95814C156.877 8.95814 157.194 8.93936 157.629 8.90022C158.064 8.86186 158.391 8.84308 158.608 8.84308C158.505 9.72521 158.436 10.3913 158.396 10.8414C158.357 11.2915 158.337 11.8426 158.337 12.4938V13.4996C158.337 14.1516 158.504 14.6307 158.842 14.9375C159.18 15.2444 159.623 15.397 160.17 15.397C160.516 15.397 160.893 15.3312 161.306 15.1958C161.715 15.0627 162.077 14.8897 162.385 14.6792C162.385 14.6416 162.385 14.55 162.385 14.4052C162.385 14.262 162.385 13.9888 162.385 13.5865C162.385 13.0503 162.367 12.1494 162.332 10.8852C162.296 9.62035 162.278 8.93936 162.278 8.84386L162.524 8.87282L164.493 8.95892C164.696 8.95892 165.014 8.94014 165.452 8.901C165.889 8.86265 166.216 8.84386 166.434 8.84386L166.245 12.5697C166.245 13.2053 166.229 14.2698 166.192 15.7618C166.156 17.2552 166.138 18.0583 166.138 18.175C166.138 19.1769 166.148 19.9752 166.164 20.5717C166.183 21.1681 166.245 21.8726 166.356 22.6804C166.046 22.6804 165.625 22.6554 165.093 22.6044C164.557 22.5544 164.237 22.5293 164.128 22.5293C163.856 22.5293 163.488 22.5544 163.026 22.6044C162.564 22.6554 162.286 22.6804 162.198 22.6804L162.278 20.7611L162.386 17.9707V16.1476C161.787 16.5719 161.141 16.8944 160.45 17.1143C159.758 17.3374 159.095 17.447 158.458 17.447C157.349 17.447 156.439 17.1495 155.731 16.5539C154.967 15.9026 154.586 15.0299 154.586 13.9356V13.5333H154.585Z" fill="#1A3B9F"/>
<path d="M172.959 14.5884L175.123 14.6745L177.365 14.5884V13.6077C177.365 13.0871 177.346 12.2981 177.311 11.2398C177.273 10.18 177.255 9.38238 177.255 8.84308L177.502 8.87204L179.471 8.95814C179.673 8.95814 179.992 8.93936 180.43 8.90022C180.866 8.86186 181.195 8.84308 181.413 8.84308L181.222 12.5689C181.222 13.2046 181.205 14.2691 181.17 15.7609C181.134 17.2545 181.116 18.0575 181.116 18.1741C181.116 19.176 181.125 19.9745 181.142 20.5709C181.16 21.1674 181.222 21.8718 181.333 22.6796C181.025 22.6796 180.603 22.6546 180.069 22.6037C179.534 22.5536 179.211 22.5286 179.105 22.5286C178.834 22.5286 178.466 22.5536 178.004 22.6037C177.541 22.6546 177.265 22.6796 177.175 22.6796L177.255 20.7713L177.365 17.9973V16.3496L175.175 16.2635L172.96 16.3496V18.171C172.96 19.1722 172.971 19.9729 172.988 20.5693C173.006 21.1666 173.07 21.8711 173.181 22.6796C172.872 22.6796 172.45 22.6546 171.915 22.6037C171.381 22.5536 171.058 22.5286 170.951 22.5286C170.678 22.5286 170.31 22.5536 169.849 22.6037C169.388 22.6546 169.111 22.6796 169.019 22.6796L169.1 20.7736L169.21 18.0004L169.291 13.6108C169.291 13.0903 169.26 12.2997 169.197 11.2414C169.133 10.1823 169.1 9.38321 169.1 8.84386L169.348 8.87282L171.315 8.95892C171.517 8.95892 171.838 8.94014 172.274 8.901C172.713 8.86265 173.042 8.84386 173.26 8.84386L173.042 12.5682L172.959 14.5884Z" fill="#1A3B9F"/>
<path d="M185.166 12.2484H184.975L184.622 10.5163C185.256 9.90104 186.021 9.42436 186.918 9.08854C187.816 8.75117 188.727 8.58289 189.651 8.58289C190.987 8.58289 192.098 8.86076 192.98 9.41965C194.079 10.1123 194.623 11.1229 194.623 12.4512V14.3853L194.544 18.6012L194.623 20.2473C194.623 20.4595 194.685 20.695 194.81 20.9541C194.931 21.2148 195.079 21.3823 195.255 21.459C195.325 21.4785 195.411 21.4981 195.518 21.5169C195.622 21.5373 195.718 21.5467 195.806 21.5467C195.893 21.5467 195.99 21.5467 196.095 21.5467C196.128 21.567 196.148 21.7071 196.148 21.9678V22.2668C195.968 22.3866 195.739 22.5024 195.468 22.6127C195.196 22.7231 194.986 22.8077 194.842 22.868C194.66 22.9078 194.466 22.9485 194.258 22.9885C194.05 23.0277 193.863 23.048 193.701 23.048C193.066 23.048 192.514 22.8601 192.042 22.4836C191.573 22.1079 191.227 21.5937 191.009 20.94C190.664 21.585 190.181 22.0969 189.555 22.4773C188.93 22.8578 188.254 23.048 187.53 23.048C186.37 23.048 185.432 22.7208 184.716 22.0641C183.999 21.4081 183.645 20.4719 183.645 19.2572C183.645 18.6012 183.784 17.9883 184.068 17.4192C184.351 16.8502 184.747 16.4072 185.259 16.087C185.769 15.7685 186.325 15.5125 186.931 15.3207C187.003 15.302 187.579 15.1477 188.657 14.8581C189.076 14.743 189.413 14.646 189.669 14.5685C190.069 14.4339 190.399 14.2789 190.653 14.1059C190.801 13.9705 190.897 13.8218 190.943 13.6574C190.987 13.493 191.01 13.2762 191.01 13.0062C191.01 12.3494 190.752 11.785 190.234 11.3131C189.719 10.8411 189.134 10.6047 188.482 10.6047C187.94 10.6047 187.414 10.7151 186.906 10.935C186.397 11.1573 185.919 11.4798 185.464 11.9033L185.166 12.2484ZM188.318 16.5003C187.993 16.7907 187.764 17.1234 187.639 17.5006C187.511 17.878 187.447 18.3382 187.447 18.8791C187.447 19.517 187.561 20.0445 187.793 20.4602C188.023 20.8759 188.414 21.0841 188.968 21.0841C189.74 21.0841 190.293 20.7647 190.622 20.1268C190.88 19.6243 191.009 18.9268 191.009 18.0376C191.009 17.7276 191.009 17.2635 191.009 16.6451C191.009 16.0252 191.009 15.5618 191.009 15.2518L189.921 15.7449C189.559 15.9008 189.287 16.0065 189.108 16.0643C188.762 16.2006 188.501 16.3446 188.318 16.5003Z" fill="#1A3B9F"/>
<path d="M205.579 8.92996H206.014H206.422H206.749C207.62 8.92996 208.234 8.90022 208.597 8.84308L208.405 12.5689C208.405 13.2046 208.388 14.2691 208.353 15.7609C208.315 17.2545 208.297 18.0575 208.297 18.1741C208.297 18.9248 208.303 19.6763 208.308 20.4269C208.314 21.1775 208.347 21.9289 208.406 22.6796C208.103 22.6796 207.698 22.6546 207.186 22.6037C206.679 22.5536 206.37 22.5286 206.261 22.5286C205.976 22.5286 205.609 22.5536 205.161 22.6037C204.716 22.6546 204.456 22.6796 204.383 22.6796L204.532 20.7713L204.682 17.9973V16.9272H204.249C203.709 17.5629 203.214 18.2384 202.764 18.9499C202.424 19.5095 201.773 20.7517 200.818 22.6796C200.326 22.639 199.898 22.6044 199.536 22.574C199.169 22.5434 198.934 22.5286 198.824 22.5286C198.458 22.5286 197.999 22.5536 197.443 22.6037C196.888 22.6546 196.583 22.6796 196.527 22.6796V22.4777C197.234 21.3599 197.877 20.358 198.456 19.4704C199.236 18.2955 199.962 17.2552 200.632 16.3496C199.779 16.0803 199.101 15.6952 198.593 15.195C197.886 14.5031 197.532 13.6554 197.532 12.6542C197.532 11.3463 197.994 10.3843 198.921 9.76748C199.844 9.15069 201.094 8.84386 202.67 8.84386L205.579 8.92996ZM204.683 11.6797L204.574 10.3717H204.004C203.206 10.3717 202.553 10.5815 202.045 10.9972C201.539 11.4136 201.286 11.9991 201.286 12.7545C201.286 13.5873 201.565 14.2542 202.127 14.759C202.636 15.2037 203.26 15.4259 204.004 15.4259H204.683C204.683 14.8843 204.683 14.2448 204.683 13.5098C204.683 12.774 204.683 12.1635 204.683 11.6797Z" fill="#1A3B9F"/>
<path d="M93.9576 45.4234H93.7273C93.3426 44.9561 92.7619 44.6516 91.9853 44.5107C91.209 44.3683 90.2521 44.2978 89.114 44.2978H88.3063C86.7391 44.2978 85.6928 44.3315 85.1704 44.398C84.0934 44.531 83.3255 44.8723 82.8643 45.4242H82.6562C82.7335 45.0407 82.7718 44.5897 82.7718 44.0723C82.7718 43.6896 82.7335 43.3319 82.6562 42.9977H83.5098C85.0319 39.4714 86.4232 35.9287 87.6837 32.368L88.4677 32.469L89.2524 32.368C90.4204 35.8277 91.7199 39.3712 93.1503 42.9977H93.9567C93.879 43.3319 93.842 43.6896 93.842 44.0723C93.842 44.2736 93.8485 44.4887 93.8642 44.7228C93.8799 44.9561 93.9114 45.1894 93.9576 45.4234ZM89.7144 42.8959C89.3917 41.7414 89.0697 40.6878 88.7461 39.7329C88.6222 39.3978 88.2298 38.3184 87.5698 36.4946C87.1231 37.5991 86.7154 38.662 86.3468 39.6828C85.9322 40.8044 85.5627 41.8752 85.24 42.8959C85.5169 42.8959 86.0155 42.9123 86.7391 42.946C87.4611 42.9789 87.8764 42.9953 87.9835 42.9953C88.2145 42.9953 88.4723 42.9906 88.7553 42.982C89.0421 42.9757 89.3603 42.9476 89.7144 42.8959Z" fill="#1A3B9F"/>
<path d="M95.2495 44.4912L95.3179 42.8341L95.4095 40.4249L95.4798 36.6105C95.4798 36.1581 95.4567 35.4725 95.4095 34.5519C95.3651 33.6322 95.3429 32.9379 95.3429 32.4683L95.5501 32.4925L97.21 32.5685C97.3793 32.5685 97.6475 32.552 98.0192 32.5184C98.3854 32.4855 98.6647 32.4683 98.8478 32.4683L98.6647 35.6939C98.6647 36.2434 98.6471 37.0552 98.6166 38.1291C98.5852 39.2022 98.5713 39.7556 98.5713 39.7885C99.5423 38.6395 100.451 37.4903 101.298 36.3421C102.146 35.1914 103.047 33.9007 104.001 32.4683C104.202 32.4683 104.403 32.4729 104.605 32.48C104.807 32.4886 105.008 32.4925 105.208 32.4925H105.581C105.688 32.4769 105.773 32.4683 105.835 32.4683L105.675 35.6939C105.675 36.2474 105.66 37.1742 105.627 38.4727C105.598 39.7712 105.583 40.4703 105.583 40.5704C105.583 41.4416 105.589 42.1383 105.606 42.6572C105.619 43.177 105.675 43.7876 105.766 44.492C105.504 44.492 105.146 44.4631 104.695 44.4075C104.241 44.3511 103.968 44.3237 103.876 44.3237C103.646 44.3237 103.335 44.3511 102.942 44.4075C102.549 44.4631 102.316 44.492 102.238 44.492L102.308 42.8302L102.398 40.417V37.0199C101.403 38.1705 100.455 39.3643 99.5581 40.6064C98.661 41.8471 97.7908 43.1425 96.9465 44.492C96.7477 44.492 96.4619 44.492 96.0855 44.492C95.7119 44.4912 95.4317 44.4912 95.2495 44.4912Z" fill="#1A3B9F"/>
<path d="M108.948 35.4193H108.786L108.486 33.9188C109.023 33.3857 109.674 32.9733 110.436 32.6797C111.196 32.3893 111.968 32.2422 112.753 32.2422C113.886 32.2422 114.83 32.4848 115.576 32.9677C116.506 33.5681 116.973 34.444 116.973 35.5939V37.2689L116.903 40.9204L116.973 42.345C116.973 42.529 117.024 42.7325 117.13 42.9571C117.231 43.1826 117.359 43.3305 117.507 43.3963C117.565 43.4127 117.64 43.4291 117.729 43.4463C117.818 43.4627 117.9 43.4706 117.975 43.4706C118.048 43.4706 118.13 43.4706 118.217 43.4706C118.248 43.4886 118.263 43.6107 118.263 43.8354V44.0952C118.11 44.1994 117.918 44.2988 117.686 44.3958C117.455 44.4905 117.279 44.5641 117.157 44.6158C117.002 44.6494 116.837 44.6839 116.662 44.719C116.484 44.7535 116.327 44.7715 116.19 44.7715C115.651 44.7715 115.181 44.6072 114.782 44.2831C114.381 43.9567 114.091 43.5113 113.905 42.9462C113.613 43.5034 113.201 43.9465 112.672 44.2761C112.141 44.6072 111.568 44.7715 110.956 44.7715C109.969 44.7715 109.175 44.4866 108.567 43.9183C107.96 43.35 107.656 42.5407 107.656 41.4886C107.656 40.9197 107.776 40.3897 108.016 39.8966C108.255 39.4034 108.593 39.0191 109.027 38.7436C109.46 38.4673 109.933 38.245 110.444 38.0775C110.505 38.0618 110.996 37.9288 111.907 37.6767C112.263 37.5766 112.551 37.4936 112.768 37.4263C113.109 37.3096 113.387 37.1766 113.605 37.0255C113.727 36.9089 113.809 36.7797 113.849 36.6365C113.887 36.4948 113.906 36.3061 113.906 36.0721C113.906 35.5046 113.688 35.0162 113.248 34.6068C112.81 34.1966 112.314 33.9923 111.762 33.9923C111.301 33.9923 110.855 34.0886 110.424 34.2796C109.994 34.4722 109.585 34.7517 109.201 35.1172L108.948 35.4193ZM111.622 39.1006C111.346 39.351 111.155 39.6398 111.046 39.9678C110.939 40.295 110.884 40.6927 110.884 41.1615C110.884 41.7142 110.982 42.1697 111.177 42.5297C111.373 42.8914 111.704 43.0698 112.174 43.0698C112.828 43.0698 113.297 42.7935 113.579 42.2401C113.798 41.8049 113.906 41.2014 113.906 40.4304C113.906 40.1627 113.906 39.7604 113.906 39.2234C113.906 38.688 113.906 38.2872 113.906 38.018L112.986 38.4446C112.676 38.5792 112.446 38.6723 112.292 38.7217C112 38.8407 111.776 38.9674 111.622 39.1006Z" fill="#1A3B9F"/>
<path d="M126.821 32.463C126.743 32.7644 126.707 33.0399 126.707 33.2903C126.707 33.5925 126.744 33.8853 126.821 34.1685C126.27 34.1028 125.744 34.0441 125.239 33.994C124.736 33.944 124.2 33.9189 123.635 33.9189H123.014L122.97 35.6965V40.5503C122.97 41.4176 122.975 42.1095 122.992 42.6261C123.008 43.1427 123.062 43.7525 123.152 44.4538C122.891 44.4538 122.531 44.4319 122.073 44.3881C121.618 44.3434 121.343 44.3223 121.25 44.3223C121.017 44.3223 120.705 44.3434 120.309 44.3881C119.916 44.4319 119.679 44.4538 119.604 44.4538L119.694 42.8014L119.786 40.3992V36.5974C119.786 36.1482 119.772 35.4633 119.741 34.5459C119.709 33.6277 119.693 32.9373 119.693 32.4693C120.197 32.5021 120.747 32.5366 121.343 32.5694C121.938 32.6024 122.511 32.6195 123.061 32.6195H123.542C124.69 32.6195 125.782 32.5663 126.821 32.463Z" fill="#1A3B9F"/>
<path d="M131.48 37.445L133.313 37.5201L135.216 37.445V36.5941C135.216 36.1448 135.2 35.4615 135.169 34.5433C135.138 33.6267 135.122 32.9348 135.122 32.4683L135.33 32.4925L137.002 32.5685C137.173 32.5685 137.444 32.552 137.814 32.5184C138.187 32.4855 138.465 32.4683 138.65 32.4683L138.489 35.6963C138.489 36.2458 138.473 37.1686 138.442 38.4609C138.412 39.7532 138.395 40.4499 138.395 40.5501C138.395 41.4182 138.404 42.1101 138.42 42.6275C138.435 43.1441 138.489 43.7531 138.58 44.4536C138.319 44.4536 137.962 44.4317 137.511 44.3879C137.056 44.3432 136.783 44.3221 136.692 44.3221C136.46 44.3221 136.15 44.3432 135.758 44.3879C135.366 44.4317 135.131 44.4536 135.054 44.4536L135.123 42.7997L135.216 40.3982V38.9713L133.359 38.8953L131.479 38.9713V40.5477C131.479 41.4166 131.487 42.1086 131.502 42.6267C131.517 43.1433 131.571 43.7523 131.663 44.4544C131.402 44.4544 131.044 44.4325 130.591 44.3887C130.137 44.3441 129.865 44.3229 129.772 44.3229C129.542 44.3229 129.229 44.3441 128.838 44.3887C128.446 44.4325 128.211 44.4544 128.134 44.4544L128.203 42.8021L128.297 40.3998L128.366 36.598C128.366 36.1487 128.339 35.4638 128.285 34.5464C128.231 33.6283 128.204 32.9379 128.204 32.4698L128.413 32.4941L130.085 32.57C130.254 32.57 130.525 32.5536 130.897 32.5199C131.269 32.4871 131.549 32.4698 131.735 32.4698L131.55 35.6955L131.48 37.445Z" fill="#1A3B9F"/>
<path d="M146.099 44.773C144.394 44.773 143.032 44.2329 142.019 43.1496C141.002 42.0679 140.496 40.6041 140.496 38.7584C140.496 37.8105 140.616 36.9456 140.855 36.1628C141.092 35.3817 141.487 34.6663 142.042 34.0174C142.505 33.4687 143.117 33.0225 143.888 32.6813C144.656 32.3392 145.4 32.1693 146.124 32.1693C146.907 32.1693 147.683 32.3071 148.453 32.581C149.223 32.8558 149.845 33.2714 150.321 33.8288C150.798 34.3868 151.162 35.0514 151.418 35.8263C151.67 36.5989 151.797 37.3941 151.797 38.2082C151.797 40.1557 151.305 41.7203 150.321 42.9015C149.277 44.1492 147.868 44.773 146.099 44.773ZM146.261 33.2441C145.554 33.2441 145.002 33.6589 144.601 34.491C144.292 35.1234 144.103 35.8874 144.025 36.7875C144.025 37.002 144.009 37.319 143.978 37.7354C143.947 38.1502 143.932 38.4673 143.932 38.6833C143.932 39.9639 144.04 40.9948 144.253 41.7767C144.61 43.04 145.223 43.6733 146.098 43.6733C146.683 43.6733 147.144 43.4064 147.483 42.8742C147.714 42.5078 147.915 41.9434 148.083 41.1772C148.16 40.8452 148.229 40.3091 148.29 39.5686C148.35 38.8273 148.381 38.2419 148.381 37.8098C148.381 37.6101 148.371 37.3856 148.348 37.1366C148.324 36.8862 148.305 36.6959 148.29 36.5613C148.29 35.7637 148.144 35.0576 147.854 34.4409C147.484 33.6432 146.955 33.2441 146.261 33.2441Z" fill="#1A3B9F"/>
<path d="M163.374 33.3671L162.499 35.9195H161.942C161.853 35.1939 161.604 34.5983 161.207 34.1373C160.805 33.6755 160.267 33.4438 159.59 33.4438C158.622 33.4438 157.891 34.0081 157.401 35.1407C157.015 36.0213 156.824 37.053 156.824 38.2318C156.824 39.0153 156.87 39.672 156.963 40.2035C157.054 40.7358 157.259 41.2476 157.573 41.7384C157.888 42.2285 158.269 42.5822 158.714 42.7983C159.161 43.0143 159.675 43.1216 160.261 43.1216C160.691 43.1216 161.129 43.0143 161.576 42.7975C162.019 42.5807 162.383 42.2965 162.66 41.9483L163.052 42.2965L162.499 43.7728C162.221 44.0398 161.753 44.2636 161.091 44.4476C160.429 44.6307 159.862 44.723 159.386 44.723C158.523 44.723 157.748 44.615 157.055 44.3982C156.21 44.1329 155.524 43.7149 155.002 43.1474C153.896 41.9303 153.342 40.4391 153.342 38.6709C153.342 36.6866 153.896 35.1109 155.002 33.9439C156.109 32.7776 157.578 32.1929 159.408 32.1929C160.099 32.1929 160.798 32.2916 161.506 32.4864C162.214 32.6829 162.835 32.9757 163.374 33.3671Z" fill="#1A3B9F"/>
<path d="M167.017 33.8938C166.289 33.8938 165.778 33.9078 165.484 33.9336C165.189 33.9603 164.632 34.037 163.812 34.1622C163.886 33.9133 163.925 33.6221 163.925 33.2879C163.925 33.0382 163.886 32.7627 163.812 32.4629C163.962 32.4629 164.9 32.5059 166.618 32.5913C167.308 32.6265 167.992 32.6437 168.666 32.6437C169.263 32.6437 170.092 32.6132 171.151 32.5529C172.208 32.4926 172.946 32.4621 173.359 32.4621C173.282 32.758 173.242 33.0296 173.242 33.277C173.242 33.5736 173.283 33.8625 173.359 34.1442C172.85 34.0762 172.335 34.019 171.814 33.9681C171.29 33.9188 170.752 33.8929 170.201 33.8929V35.6729V40.5393C170.201 41.4104 170.204 42.1031 170.215 42.6214C170.222 43.1411 170.257 43.7493 170.316 44.4529C170.058 44.4529 169.708 44.4311 169.264 44.3872C168.819 44.3425 168.551 44.3215 168.46 44.3215C168.235 44.3215 167.93 44.3425 167.546 44.3872C167.16 44.4311 166.932 44.4529 166.855 44.4529L166.925 42.7967L167.018 40.3897V36.577L167.017 33.8938Z" fill="#1A3B9F"/>
<path d="M174.673 44.4912L174.742 42.8341L174.833 40.4249L174.904 36.6105C174.904 36.1581 174.881 35.4725 174.833 34.5519C174.789 33.6322 174.766 32.9379 174.766 32.4683L174.975 32.4925L176.634 32.5685C176.803 32.5685 177.072 32.552 177.441 32.5184C177.808 32.4855 178.085 32.4683 178.271 32.4683L178.085 35.6939C178.085 36.2434 178.071 37.0552 178.04 38.1291C178.009 39.2022 177.995 39.7556 177.995 39.7885C178.965 38.6395 179.874 37.4903 180.72 36.3421C181.568 35.1914 182.469 33.9007 183.425 32.4683C183.625 32.4683 183.826 32.4729 184.027 32.48C184.228 32.4886 184.43 32.4925 184.631 32.4925H185.002C185.109 32.4769 185.196 32.4683 185.257 32.4683L185.096 35.6939C185.096 36.2474 185.081 37.1742 185.049 38.4727C185.019 39.7712 185.003 40.4703 185.003 40.5704C185.003 41.4416 185.011 42.1383 185.025 42.6572C185.041 43.177 185.096 43.7876 185.186 44.492C184.925 44.492 184.568 44.4631 184.115 44.4075C183.662 44.3511 183.389 44.3237 183.297 44.3237C183.067 44.3237 182.754 44.3511 182.362 44.4075C181.973 44.4631 181.736 44.492 181.658 44.492L181.729 42.8302L181.821 40.417V37.0199C180.823 38.1705 179.876 39.3643 178.978 40.6064C178.08 41.8471 177.21 43.1425 176.368 44.492C176.168 44.492 175.882 44.492 175.507 44.492C175.134 44.4912 174.856 44.4912 174.673 44.4912Z" fill="#1A3B9F"/>
<path d="M193.607 37.0191L195.451 40.2205L197.713 44.2477V44.4473C197.466 44.4473 197.13 44.4262 196.707 44.3855C196.28 44.344 196.032 44.3229 195.953 44.3229C195.677 44.3229 195.323 44.344 194.89 44.3855C194.459 44.4262 194.21 44.4473 194.149 44.4473L193.526 43.2278L192.739 41.7335L191.489 39.5936C191.335 39.3274 191.25 39.1865 191.234 39.1701C191.11 39.0041 190.972 38.9125 190.818 38.8954L190.749 39.5426V40.8365V42.3816C190.749 42.6298 190.767 43.0031 190.805 43.501C190.844 43.9996 190.863 44.3158 190.863 44.4473C190.634 44.4473 190.32 44.4262 189.924 44.3855C189.526 44.344 189.291 44.3229 189.212 44.3229C188.983 44.3229 188.67 44.344 188.275 44.3855C187.877 44.4262 187.64 44.4473 187.564 44.4473V43.8219C187.564 43.3726 187.59 42.6799 187.645 41.7468C187.698 40.8146 187.725 40.179 187.725 39.8456V35.319L187.563 32.444C187.838 32.4925 188.198 32.527 188.634 32.5434C189.074 32.5598 189.322 32.5684 189.384 32.5684C189.721 32.5684 189.98 32.5598 190.157 32.5434C190.332 32.527 190.622 32.4925 191.022 32.444C190.967 33.0146 190.908 33.6956 190.844 34.4908C190.776 35.2861 190.747 35.9851 190.747 36.5893C190.747 36.7733 190.747 36.9502 190.747 37.1161C190.747 37.2844 190.768 37.5185 190.816 37.8206C190.862 37.8692 190.931 37.8793 191.024 37.8449C191.736 37.0582 192.472 36.1878 193.23 35.2321C193.895 34.3954 194.585 33.4826 195.297 32.4925L196.412 32.5434L197.457 32.4925V32.6937C197.042 33.2439 196.404 33.968 195.542 34.8689C194.622 35.8364 193.976 36.5542 193.607 37.0191Z" fill="#1A3B9F"/>
<path d="M199.488 35.4193H199.327L199.028 33.9188C199.565 33.3857 200.215 32.9733 200.976 32.6797C201.737 32.3893 202.51 32.2422 203.293 32.2422C204.429 32.2422 205.37 32.4848 206.119 32.9677C207.049 33.5681 207.513 34.444 207.513 35.5939V37.2689L207.444 40.9204L207.513 42.345C207.513 42.529 207.564 42.7325 207.669 42.9571C207.774 43.1826 207.899 43.3305 208.048 43.3963C208.107 43.4127 208.182 43.4291 208.27 43.4463C208.36 43.4627 208.442 43.4706 208.516 43.4706C208.589 43.4706 208.671 43.4706 208.76 43.4706C208.789 43.4886 208.805 43.6107 208.805 43.8354V44.0952C208.651 44.1994 208.459 44.2988 208.228 44.3958C207.998 44.4905 207.821 44.5641 207.698 44.6158C207.544 44.6494 207.38 44.6839 207.202 44.719C207.026 44.7535 206.867 44.7715 206.729 44.7715C206.192 44.7715 205.724 44.6072 205.323 44.2831C204.925 43.9567 204.63 43.5113 204.446 42.9462C204.152 43.5034 203.743 43.9465 203.212 44.2761C202.682 44.6072 202.11 44.7715 201.495 44.7715C200.511 44.7715 199.714 44.4866 199.109 43.9183C198.498 43.35 198.198 42.5407 198.198 41.4886C198.198 40.9197 198.317 40.3897 198.557 39.8966C198.798 39.4034 199.134 39.0191 199.566 38.7436C200.001 38.4673 200.475 38.245 200.985 38.0775C201.046 38.0618 201.535 37.9288 202.448 37.6767C202.804 37.5766 203.09 37.4936 203.307 37.4263C203.647 37.3096 203.928 37.1766 204.144 37.0255C204.269 36.9089 204.351 36.7797 204.389 36.6365C204.426 36.4948 204.446 36.3061 204.446 36.0721C204.446 35.5046 204.227 35.0162 203.79 34.6068C203.351 34.1966 202.855 33.9923 202.302 33.9923C201.841 33.9923 201.394 34.0886 200.965 34.2796C200.534 34.4722 200.126 34.7517 199.741 35.1172L199.488 35.4193ZM202.164 39.1006C201.888 39.351 201.694 39.6398 201.586 39.9678C201.479 40.295 201.426 40.6927 201.426 41.1615C201.426 41.7142 201.523 42.1697 201.719 42.5297C201.914 42.8914 202.246 43.0698 202.713 43.0698C203.369 43.0698 203.839 42.7935 204.119 42.2401C204.337 41.8049 204.447 41.2014 204.447 40.4304C204.447 40.1627 204.447 39.7604 204.447 39.2234C204.447 38.688 204.447 38.2872 204.447 38.018L203.526 38.4446C203.217 38.5792 202.987 38.6723 202.834 38.7217C202.541 38.8407 202.318 38.9674 202.164 39.1006Z" fill="#1A3B9F"/>
<path fill-rule="evenodd" clip-rule="evenodd" d="M44.9544 18.0454H39.5209V0.708411H54.5808C68.6225 0.590216 77.6814 9.436 77.6814 24.0599C77.6814 38.6815 68.055 47.4114 54.5808 47.4114H54.4681H39.5209V29.9563H44.9544L44.9575 29.9782C44.9575 30.696 44.9544 30.9339 44.9544 31.4881V41.7506H56.3927V29.9555H67.9438V18.0454H56.3927V6.251H44.9544V16.6294M39.5209 47.4114H39.1796V41.0407C35.2176 45.4044 29.442 48 23.1006 48C10.3057 48 0 37.2694 0 24.0607C0 10.7322 10.3057 3.05176e-05 23.1006 3.05176e-05C29.442 3.05176e-05 35.2176 2.71301 39.1796 6.95859V0.709194L39.5209 0.708411V18.0454L39.1796 18.0461H34.0835C32.1611 13.5634 27.9713 10.4974 23.2141 10.4974C16.6457 10.4974 11.2114 16.5119 11.2114 24.0607C11.2114 31.4881 16.6449 37.6224 23.2141 37.6224C27.9713 37.6224 32.1611 34.4398 34.0835 29.9571H39.1796L39.5209 29.9563V47.4114Z" fill="#1A3B9F"/>
</g>
<defs>
<clipPath id="clip0_101_60">
<rect width="209" height="48" fill="white"/>
</clipPath>
</defs>
</svg>
